<?xml version="1.0" standalone="no"?>
<!DOCTYPE svg PUBLIC "-//W3C//DTD SVG 20010904//EN"
 "http://www.w3.org/TR/2001/REC-SVG-20010904/DTD/svg10.dtd">
<svg version="1.0" xmlns="http://www.w3.org/2000/svg"
 width="414.000000pt" height="256.000000pt" viewBox="0 0 414.000000 256.000000"
 preserveAspectRatio="xMidYMid meet">

<g transform="translate(0.000000,256.000000) scale(0.100000,-0.100000)"
fill="#000000" stroke="none">
<path d="M975 2554 c-340 -51 -588 -176 -773 -388 -294 -337 -259 -815 83
-1123 l67 -61 -33 -48 c-18 -27 -63 -79 -100 -116 -52 -51 -81 -71 -129 -89
-83 -30 -105 -64 -79 -123 18 -40 58 -50 164 -42 187 13 398 68 589 153 l100
44 79 -12 c124 -18 370 -6 487 24 376 97 647 314 757 606 52 137 64 270 39
404 -70 363 -390 652 -831 748 -87 19 -349 34 -420 23z m300 -164 c178 -26
326 -80 463 -170 202 -133 325 -326 339 -533 22 -338 -247 -643 -666 -754 -84
-23 -118 -26 -266 -27 -93 -1 -204 3 -245 7 l-75 9 -95 -45 c-84 -40 -232 -93
-313 -113 -27 -6 -26 -4 29 72 74 103 99 154 90 187 -4 16 -33 48 -74 81 -256
204 -354 465 -273 726 75 241 324 451 626 529 152 40 319 51 460 31z"/>
<path d="M3262 1800 c-10 -16 -10 -20 1 -20 14 0 37 20 37 32 0 16 -25 8 -38
-12z"/>
<path d="M2720 1720 c0 -72 3 -90 14 -90 11 0 16 14 18 47 2 36 7 49 21 51 14
3 17 -4 17 -47 0 -39 4 -51 15 -51 12 0 15 13 15 60 0 55 -2 60 -24 66 -14 3
-30 3 -35 -1 -7 -4 -11 5 -11 24 0 21 -5 31 -15 31 -12 0 -15 -17 -15 -90z"/>
<path d="M2595 1776 c-34 -34 -34 -88 0 -121 27 -28 76 -33 95 -10 13 16 9 18
-28 15 -33 -2 -52 18 -52 55 0 39 21 59 55 52 20 -3 25 -1 23 12 -5 28 -64 26
-93 -3z"/>
<path d="M3095 1776 c-34 -34 -34 -88 0 -121 27 -28 76 -33 95 -10 13 16 9 18
-28 15 -33 -2 -52 18 -52 55 0 39 21 59 55 52 20 -3 25 -1 23 12 -5 28 -64 26
-93 -3z"/>
<path d="M2990 1775 c0 -8 -4 -15 -10 -15 -5 0 -10 -7 -10 -15 0 -8 5 -15 10
-15 6 0 10 -17 10 -38 0 -41 14 -62 42 -62 22 0 24 26 3 34 -9 3 -15 18 -15
36 0 20 5 30 15 30 8 0 15 7 15 15 0 8 -7 15 -15 15 -8 0 -15 7 -15 15 0 8 -7
15 -15 15 -8 0 -15 -7 -15 -15z"/>
<path d="M2867 1753 c-17 -16 -5 -29 23 -25 39 6 39 -14 0 -22 -64 -12 -49
-70 19 -72 l41 -1 0 58 c0 43 -4 58 -16 63 -21 8 -59 8 -67 -1z m53 -73 c0
-12 -28 -25 -36 -17 -9 9 6 27 22 27 8 0 14 -5 14 -10z"/>
<path d="M3227 1753 c-17 -16 -5 -29 23 -25 39 6 39 -14 0 -22 -64 -12 -49
-70 19 -72 l41 -1 0 58 c0 43 -4 58 -16 63 -21 8 -59 8 -67 -1z m53 -73 c0
-12 -28 -25 -36 -17 -9 9 6 27 22 27 8 0 14 -5 14 -10z"/>
<path d="M3357 1742 c-23 -25 -22 -75 2 -96 23 -21 65 -18 69 5 2 12 -3 15
-21 12 -30 -6 -41 9 -32 44 5 20 11 24 31 20 19 -3 24 -1 22 12 -5 23 -51 26
-71 3z"/>
<path d="M3470 1740 c-51 -51 5 -130 74 -104 30 12 17 30 -18 26 -18 -2 -37 1
-40 7 -5 7 8 11 38 11 51 0 60 16 30 58 -19 28 -57 29 -84 2z m68 -27 c2 -8
-6 -13 -22 -13 -17 0 -26 5 -26 16 0 19 41 16 48 -3z"/>
<path d="M3600 1694 c0 -50 3 -64 15 -64 11 0 15 12 15 46 0 37 4 47 20 51 34
9 23 31 -15 31 l-35 0 0 -64z"/>
<path d="M3710 1740 c-51 -51 5 -130 74 -104 30 12 17 30 -18 26 -18 -2 -37 1
-40 7 -5 7 8 11 38 11 51 0 60 16 30 58 -19 28 -57 29 -84 2z m68 -27 c2 -8
-6 -13 -22 -13 -17 0 -26 5 -26 16 0 19 41 16 48 -3z"/>
<path d="M3841 1746 c-17 -21 -8 -43 24 -58 35 -16 32 -32 -6 -24 -25 5 -30 3
-27 -12 4 -21 53 -29 74 -11 23 19 16 47 -16 64 -37 19 -39 29 -5 22 20 -3 25
-1 23 12 -4 21 -51 26 -67 7z"/>
<path d="M2351 1334 c-27 -35 -27 -45 9 -142 56 -155 50 -293 -20 -437 -45
-92 -102 -164 -179 -227 -94 -75 -111 -94 -111 -125 0 -31 39 -100 98 -172
l35 -43 -34 7 c-53 11 -216 69 -297 106 l-72 33 -83 -12 c-294 -42 -566 20
-786 181 -87 62 -141 64 -166 4 -19 -45 -2 -79 58 -124 143 -107 295 -174 482
-214 59 -13 310 -18 430 -10 54 4 70 0 151 -37 155 -70 392 -122 553 -122 84
0 116 13 132 52 24 59 0 86 -122 137 -35 15 -142 115 -172 162 l-17 26 87 89
c92 94 138 162 180 264 29 73 53 192 53 265 0 119 -59 319 -103 350 -35 24
-82 19 -106 -11z"/>
</g>
</svg>
